HIERARCHY
ROOT Hips
{
  OFFSET -271.218 72.5554 1563.86
  CHANNELS 6 Xposition Yposition Zposition Zrotation Xrotation Yrotation
  JOINT Spine
  {
    OFFSET 0 8 0
    CHANNELS 6 Xposition Yposition Zposition Zrotation Xrotation Yrotation
    JOINT Spine1
    {
      OFFSET 0 8 0
      CHANNELS 6 Xposition Yposition Zposition Zrotation Xrotation Yrotation
      JOINT Spine2
      {
        OFFSET 0 8 0
        CHANNELS 6 Xposition Yposition Zposition Zrotation Xrotation Yrotation
        JOINT Spine3
        {
          OFFSET 0 8 0
          CHANNELS 6 Xposition Yposition Zposition Zrotation Xrotation Yrotation
          JOINT Neck
          {
            OFFSET 0 17 0
            CHANNELS 6 Xposition Yposition Zposition Zrotation Xrotation Yrotation
            JOINT Head
            {
              OFFSET 0 10.8 0
              CHANNELS 6 Xposition Yposition Zposition Zrotation Xrotation Yrotation
              End Site
              {
                OFFSET 0 20.25 0
              }
            }
          }
          JOINT LeftShoulder
          {
            OFFSET 5 17 0
            CHANNELS 6 Xposition Yposition Zposition Zrotation Xrotation Yrotation
            JOINT LeftShoulder2
            {
              OFFSET 6.45 0 0
              CHANNELS 6 Xposition Yposition Zposition Zrotation Xrotation Yrotation
              JOINT LeftArm
              {
                OFFSET 6.45 0 0
                CHANNELS 6 Xposition Yposition Zposition Zrotation Xrotation Yrotation
                JOINT LeftForeArm
                {
                  OFFSET 0 -32.4 -2
                  CHANNELS 6 Xposition Yposition Zposition Zrotation Xrotation Yrotation
                  JOINT LeftHand
                  {
                    OFFSET 0 -25.65 2
                    CHANNELS 6 Xposition Yposition Zposition Zrotation Xrotation Yrotation
                    JOINT LeftHandThumb1
                    {
                      OFFSET -0.5 -1.5 2.65
                      CHANNELS 6 Xposition Yposition Zposition Zrotation Xrotation Yrotation
                      JOINT LeftHandThumb2
                      {
                        OFFSET 0 -3.8 3.7
                        CHANNELS 6 Xposition Yposition Zposition Zrotation Xrotation Yrotation
                        JOINT LeftHandThumb3
                        {
                          OFFSET 0 -3 2.7
                          CHANNELS 6 Xposition Yposition Zposition Zrotation Xrotation Yrotation
                          End Site
                          {
                            OFFSET 0 -2.3 1.8
                          }
                        }
                      }
                    }
                    JOINT LeftHandIndex
                    {
                      OFFSET 0 -1.9 1.6
                      CHANNELS 6 Xposition Yposition Zposition Zrotation Xrotation Yrotation
                      JOINT LeftHandIndex1
                      {
                        OFFSET 0 -8.3 1.9
                        CHANNELS 6 Xposition Yposition Zposition Zrotation Xrotation Yrotation
                        JOINT LeftHandIndex2
                        {
                          OFFSET 0 -4.5 0
                          CHANNELS 6 Xposition Yposition Zposition Zrotation Xrotation Yrotation
                          JOINT LeftHandIndex3
                          {
                            OFFSET 0 -3.4 0
                            CHANNELS 6 Xposition Yposition Zposition Zrotation Xrotation Yrotation
                            End Site
                            {
                              OFFSET 0 -2.6 0
                            }
                          }
                        }
                      }
                    }
                    JOINT LeftHandMiddle
                    {
                      OFFSET -0.25 -2.2 0.4
                      CHANNELS 6 Xposition Yposition Zposition Zrotation Xrotation Yrotation
                      JOINT LeftHandMiddle1
                      {
                        OFFSET 0 -8.3 1
                        CHANNELS 6 Xposition Yposition Zposition Zrotation Xrotation Yrotation
                        JOINT LeftHandMiddle2
                        {
                          OFFSET 0 -4.65 0
                          CHANNELS 6 Xposition Yposition Zposition Zrotation Xrotation Yrotation
                          JOINT LeftHandMiddle3
                          {
                            OFFSET 0 -3.3 0
                            CHANNELS 6 Xposition Yposition Zposition Zrotation Xrotation Yrotation
                            End Site
                            {
                              OFFSET 0 -2.7 0
                            }
                          }
                        }
                      }
                    }
                    JOINT LeftHandRing
                    {
                      OFFSET -0.5 -2.15 -0.8
                      CHANNELS 6 Xposition Yposition Zposition Zrotation Xrotation Yrotation
                      JOINT LeftHandRing1
                      {
                        OFFSET 0 -7.75 -0.2
                        CHANNELS 6 Xposition Yposition Zposition Zrotation Xrotation Yrotation
                        JOINT LeftHandRing2
                        {
                          OFFSET 0 -3.8 0
                          CHANNELS 6 Xposition Yposition Zposition Zrotation Xrotation Yrotation
                          JOINT LeftHandRing3
                          {
                            OFFSET 0 -3.4 0
                            CHANNELS 6 Xposition Yposition Zposition Zrotation Xrotation Yrotation
                            End Site
                            {
                              OFFSET 0 -2.6 0
                            }
                          }
                        }
                      }
                    }
                    JOINT LeftHandPinky
                    {
                      OFFSET -0.75 -1.75 -1.85
                      CHANNELS 6 Xposition Yposition Zposition Zrotation Xrotation Yrotation
                      JOINT LeftHandPinky1
                      {
                        OFFSET 0 -7.15 -1
                        CHANNELS 6 Xposition Yposition Zposition Zrotation Xrotation Yrotation
                        JOINT LeftHandPinky2
                        {
                          OFFSET 0 -3 0
                          CHANNELS 6 Xposition Yposition Zposition Zrotation Xrotation Yrotation
                          JOINT LeftHandPinky3
                          {
                            OFFSET 0 -2.35 0
                            CHANNELS 6 Xposition Yposition Zposition Zrotation Xrotation Yrotation
                            End Site
                            {
                              OFFSET 0 -2.1 0
                            }
                          }
                        }
                      }
                    }
                  }
                }
              }
            }
          }
          JOINT RightShoulder
          {
            OFFSET -5 17 0
            CHANNELS 6 Xposition Yposition Zposition Zrotation Xrotation Yrotation
            JOINT RightShoulder2
            {
              OFFSET -6.45 0 0
              CHANNELS 6 Xposition Yposition Zposition Zrotation Xrotation Yrotation
              JOINT RightArm
              {
                OFFSET -6.45 0 0
                CHANNELS 6 Xposition Yposition Zposition Zrotation Xrotation Yrotation
                JOINT RightForeArm
                {
                  OFFSET 0 -32.4 -2
                  CHANNELS 6 Xposition Yposition Zposition Zrotation Xrotation Yrotation
                  JOINT RightHand
                  {
                    OFFSET 0 -25.65 2
                    CHANNELS 6 Xposition Yposition Zposition Zrotation Xrotation Yrotation
                    JOINT RightHandThumb1
                    {
                      OFFSET 0.5 -1.5 2.65
                      CHANNELS 6 Xposition Yposition Zposition Zrotation Xrotation Yrotation
                      JOINT RightHandThumb2
                      {
                        OFFSET 0 -3.8 3.7
                        CHANNELS 6 Xposition Yposition Zposition Zrotation Xrotation Yrotation
                        JOINT RightHandThumb3
                        {
                          OFFSET 0 -3 2.7
                          CHANNELS 6 Xposition Yposition Zposition Zrotation Xrotation Yrotation
                          End Site
                          {
                            OFFSET 0 -2.3 1.8
                          }
                        }
                      }
                    }
                    JOINT RightHandIndex
                    {
                      OFFSET 0 -1.9 1.6
                      CHANNELS 6 Xposition Yposition Zposition Zrotation Xrotation Yrotation
                      JOINT RightHandIndex1
                      {
                        OFFSET 0 -8.3 1.9
                        CHANNELS 6 Xposition Yposition Zposition Zrotation Xrotation Yrotation
                        JOINT RightHandIndex2
                        {
                          OFFSET 0 -4.5 0
                          CHANNELS 6 Xposition Yposition Zposition Zrotation Xrotation Yrotation
                          JOINT RightHandIndex3
                          {
                            OFFSET 0 -3.4 0
                            CHANNELS 6 Xposition Yposition Zposition Zrotation Xrotation Yrotation
                            End Site
                            {
                              OFFSET 0 -2.6 0
                            }
                          }
                        }
                      }
                    }
                    JOINT RightHandMiddle
                    {
                      OFFSET 0.25 -2.2 0.4
                      CHANNELS 6 Xposition Yposition Zposition Zrotation Xrotation Yrotation
                      JOINT RightHandMiddle1
                      {
                        OFFSET 0 -8.3 1
                        CHANNELS 6 Xposition Yposition Zposition Zrotation Xrotation Yrotation
                        JOINT RightHandMiddle2
                        {
                          OFFSET 0 -4.65 0
                          CHANNELS 6 Xposition Yposition Zposition Zrotation Xrotation Yrotation
                          JOINT RightHandMiddle3
                          {
                            OFFSET 0 -3.3 0
                            CHANNELS 6 Xposition Yposition Zposition Zrotation Xrotation Yrotation
                            End Site
                            {
                              OFFSET 0 -2.7 0
                            }
                          }
                        }
                      }
                    }
                    JOINT RightHandRing
                    {
                      OFFSET 0.5 -2.15 -0.8
                      CHANNELS 6 Xposition Yposition Zposition Zrotation Xrotation Yrotation
                      JOINT RightHandRing1
                      {
                        OFFSET 0 -7.75 -0.2
                        CHANNELS 6 Xposition Yposition Zposition Zrotation Xrotation Yrotation
                        JOINT RightHandRing2
                        {
                          OFFSET 0 -3.8 0
                          CHANNELS 6 Xposition Yposition Zposition Zrotation Xrotation Yrotation
                          JOINT RightHandRing3
                          {
                            OFFSET 0 -3.4 0
                            CHANNELS 6 Xposition Yposition Zposition Zrotation Xrotation Yrotation
                            End Site
                            {
                              OFFSET 0 -2.6 0
                            }
                          }
                        }
                      }
                    }
                    JOINT RightHandPinky
                    {
                      OFFSET 0.75 -1.75 -1.85
                      CHANNELS 6 Xposition Yposition Zposition Zrotation Xrotation Yrotation
                      JOINT RightHandPinky1
                      {
                        OFFSET 0 -7.15 -1
                        CHANNELS 6 Xposition Yposition Zposition Zrotation Xrotation Yrotation
                        JOINT RightHandPinky2
                        {
                          OFFSET 0 -3 0
                          CHANNELS 6 Xposition Yposition Zposition Zrotation Xrotation Yrotation
                          JOINT RightHandPinky3
                          {
                            OFFSET 0 -2.35 0
                            CHANNELS 6 Xposition Yposition Zposition Zrotation Xrotation Yrotation
                            End Site
                            {
                              OFFSET 0 -2.1 0
                            }
                          }
                        }
                      }
                    }
                  }
                }
              }
            }
          }
        }
      }
    }
  }
  JOINT LeftUpLeg
  {
    OFFSET 8 0 0
    CHANNELS 6 Xposition Yposition Zposition Zrotation Xrotation Yrotation
    JOINT LeftLeg
    {
      OFFSET 13.6239 -41.342 -6.98189
      CHANNELS 6 Xposition Yposition Zposition Zrotation Xrotation Yrotation
      JOINT LeftFoot
      {
        OFFSET 0 -41 -2
        CHANNELS 6 Xposition Yposition Zposition Zrotation Xrotation Yrotation
        JOINT LeftToeBase
        {
          OFFSET 0 -7.5 12.5
          CHANNELS 6 Xposition Yposition Zposition Zrotation Xrotation Yrotation
          JOINT LeftFootToe
          {
            OFFSET 0 0 4
            CHANNELS 6 Xposition Yposition Zposition Zrotation Xrotation Yrotation
            End Site
            {
              OFFSET 0 0 0
            }
          }
        }
      }
    }
  }
  JOINT RightUpLeg
  {
    OFFSET -8 0 0
    CHANNELS 6 Xposition Yposition Zposition Zrotation Xrotation Yrotation
    JOINT RightLeg
    {
      OFFSET 0 -45 -1
      CHANNELS 6 Xposition Yposition Zposition Zrotation Xrotation Yrotation
      JOINT RightFoot
      {
        OFFSET 0 -41 -2
        CHANNELS 6 Xposition Yposition Zposition Zrotation Xrotation Yrotation
        JOINT RightToeBase
        {
          OFFSET 0 -7.5 12.5
          CHANNELS 6 Xposition Yposition Zposition Zrotation Xrotation Yrotation
          JOINT RightFootToe
          {
            OFFSET 0 0 4
            CHANNELS 6 Xposition Yposition Zposition Zrotation Xrotation Yrotation
            End Site
            {
              OFFSET 0 0 0
            }
          }
        }
      }
    }
  }
}
MOTION
Frames:	3
Frame Time:	0.0111111
-261.454 75.8165 1556.79 -14.2111 7.8628 169.816 -1.13687e-13 8 2.27374e-13 8.54948 15.8605 -12.8492 1.13687e-13 8 2.27374e-13 0.167633 10.5983 1.81004 0 8 2.27374e-13 0.12574 5.30789 0.907016 -2.84217e-14 8 -2.27374e-13 0.125376 5.28451 0.903036 0 17 0 1.92519 2.07831 -1.46843 5.68434e-14 10.8 0 4.58347 4.77168 -3.5409 5 17 2.27374e-13 -5.16067 0.517995 12.246 6.45 0 0 -1.19188 -1.24515 1.57799 6.45 -1.13687e-13 0 47.2784 6.55516 -7.41803 -1.13687e-13 -32.4 -2 1.88413 -71.2702 -22.2792 -4.54747e-13 -25.65 2 -24.8779 -5.20433 -22.1596 -0.5 -1.5 2.65 -40.3951 -44.5775 114.108 0 -3.8 3.7 -0.39496 25.147 -0.0209987 0 -3 2.7 -0.0555461 33.6754 0.0459586 0 -1.9 1.6 -2.68972e-32 7.7526e-15 1.98785e-16 0 -8.3 1.9 -58.6243 15.8951 10.4443 -2.27374e-13 -4.5 1.13687e-13 -73.3831 -0.00427979 0.00349812 1.13687e-13 -3.4 1.13687e-13 -56.0123 -0.00168729 -0.00316202 -0.25 -2.2 0.4 -2.68972e-32 7.7526e-15 1.98785e-16 2.27374e-13 -8.3 1 -53.315 11.898 8.08825 -2.27374e-13 -4.65 0 -77.7232 -0.0106421 -0.00118678 0 -3.3 -5.68434e-14 -90.0002 3.48867e-14 -7.43455e-14 -0.5 -2.15 -0.8 -2.68972e-32 7.7526e-15 1.98785e-16 2.27374e-13 -7.75 -0.2 -71.0538 3.96918 11.5775 1.13687e-13 -3.8 5.68434e-14 -3.77233 0.0039857 0.000878539 2.27374e-13 -3.4 0 -90.0002 -0.000671387 -5.04913e-14 -0.75 -1.75 -1.85 -2.68972e-32 7.7526e-15 1.98785e-16 -2.27374e-13 -7.15 -1 -25.1089 16.7487 5.00094 -2.27374e-13 -3 5.68434e-14 -75.3865 -0.000868412 -0.00103318 2.84217e-14 -2.35 -5.68434e-14 -90.0002 5.72997e-14 -7.99114e-14 -5 17 0 3.98444 -0.277365 -3.65074 -6.45 -2.27374e-13 0 -2.03679 0.541566 -0.911077 -6.45 2.27374e-13 2.27374e-13 -28.8087 -25.9987 15.4109 -5.68434e-14 -32.4 -2 75.5326 -75.7649 36.963 0 -25.65 2 -35.029 -7.11694 -20.6842 0.5 -1.5 2.65 -7.65448 -20.5371 0.648664 0 -3.8 3.7 0.279338 -3.44756 -0.144475 -1.13687e-13 -3 2.7 0.074226 67.4557 -0.0925901 0 -1.9 1.6 4.19321e-31 3.18055e-15 -7.55382e-15 1.13687e-13 -8.3 1.9 17.7585 -7.26329 0.989155 -8.52651e-14 -4.5 2.27374e-13 6.77025 0.0167783 -0.0019731 -7.10543e-14 -3.4 -2.55795e-13 6.17697 0.0132464 -8.8826e-05 0.25 -2.2 0.4 4.19321e-31 3.18055e-15 -7.55382e-15 0 -8.3 1 38.2905 -4.51191 0.63022 0 -4.65 2.55795e-13 14.4509 -0.00903083 0.00381798 -1.13687e-13 -3.3 -2.84217e-14 12.1108 -0.00575768 0.00402916 0.5 -2.15 -0.8 4.19321e-31 3.18055e-15 -7.55382e-15 0 -7.75 -0.2 43.5491 -16.3878 4.3636 0 -3.8 0 13.1704 0.0364679 -0.0202197 1.13687e-13 -3.4 0 11.134 0.0240952 -0.0199172 0.75 -1.75 -1.85 4.19321e-31 3.18055e-15 -7.55382e-15 0 -7.15 -1 72.8927 -3.95422 -4.45292 -2.27374e-13 -3 2.27374e-13 -6.3611e-15 -5.56597e-15 7.49818e-05 -2.27374e-13 -2.35 2.27374e-13 3.18055e-15 2.38542e-15 7.42889e-05 8 2.84217e-14 4.54747e-13 -20.3721 -41.7916 -25.6935 13.6239 -41.342 -6.98189 -17.9935 75.1997 24.2427 -5.68434e-14 -41 -2 -5.4465 -1.74058 -17.2669 -1.13687e-13 -7.5 12.5 3.32913e-15 -26.9917 1.78468e-14 2.27374e-13 -5.68434e-14 4 7.00289 26.0274 62.7194 -8 2.84217e-14 2.27374e-13 4.16243 -49.0024 19.7423 5.68434e-14 -45 -1 -1.04295 76.5128 1.3744 1.13687e-13 -41 -2 0.71585 -6.43624 -15.7699 -2.84217e-14 -7.5 12.5 -3.97569e-16 -13.997 -0 0 -6.80012e-16 4 -9.49117 7.23344 62.1507 
-261.463 75.8168 1557.06 -14.245 7.91499 169.919 -5.68434e-14 8 0 8.41726 15.8659 -12.8433 1.13687e-13 8 2.27374e-13 0.146872 10.594 1.83789 0 8 0 0.115973 5.30809 0.920442 -2.84217e-14 8 -2.27374e-13 0.115643 5.28471 0.916402 2.84217e-14 17 0 1.92065 2.10637 -1.5465 5.68434e-14 10.8 2.27374e-13 4.57863 4.83322 -3.72479 5 17 2.27374e-13 -5.39075 0.386075 12.1688 6.45 0 2.27374e-13 -1.19827 -1.25722 1.5598 6.45 1.13687e-13 2.27374e-13 47.6132 6.74097 -7.31171 0 -32.4 -2 1.04701 -71.4664 -23.0422 -4.54747e-13 -25.65 2 -24.5772 -5.21724 -22.2262 -0.5 -1.5 2.65 -40.347 -44.7465 114.084 0 -3.8 3.7 -0.385345 25.2681 -0.0210384 -2.27374e-13 -3 2.7 -0.0552183 33.5986 0.0457513 -4.54747e-13 -1.9 1.6 6.89673e-34 -1.98785e-16 1.98785e-16 -2.27374e-13 -8.3 1.9 -58.6135 15.8577 10.4193 -2.27374e-13 -4.5 0 -73.4273 -0.00437062 0.00357851 0 -3.4 1.42109e-13 -56.0705 -0.00179294 -0.00323082 -0.25 -2.2 0.4 6.89673e-34 -1.98785e-16 1.98785e-16 0 -8.3 1 -53.3935 11.8823 8.09483 2.27374e-13 -4.65 0 -77.6481 -0.0113982 -0.00124181 -1.13687e-13 -3.3 5.68434e-14 -90.0002 -4.13472e-14 5.36719e-15 -0.5 -2.15 -0.8 6.89673e-34 -1.98785e-16 1.98785e-16 0 -7.75 -0.2 -71.1396 3.95342 11.5775 0 -3.8 5.68434e-14 -3.91628 0.00401876 0.000862912 1.13687e-13 -3.4 -5.68434e-14 -90.0002 -0.000671387 3.10104e-14 -0.75 -1.75 -1.85 6.89673e-34 -1.98785e-16 1.98785e-16 0 -7.15 -1 -25.3408 16.71 5.03868 -2.27374e-13 -3 5.68434e-14 -75.425 -0.000884344 -0.00105275 0 -2.35 -5.68434e-14 -90.0002 -2.23633e-15 2.78299e-14 -5 17 0 3.95831 -0.309931 -3.64766 -6.45 -1.13687e-13 -2.27374e-13 -2.04364 0.541883 -0.905652 -6.45 1.13687e-13 0 -29.1146 -25.1719 15.3712 -5.68434e-14 -32.4 -2 76.7567 -76.3117 38.6793 0 -25.65 2 -35.4369 -6.98159 -20.6643 0.5 -1.5 2.65 -7.76432 -20.4671 0.696099 0 -3.8 3.7 0.279331 -3.44756 -0.14459 -2.27374e-13 -3 2.7 0.0755814 68.0355 -0.0810301 1.13687e-13 -1.9 1.6 -9.54166e-15 -3.18055e-15 -8.34896e-15 0 -8.3 1.9 17.9184 -6.96998 0.956195 0 -4.5 1.98952e-13 7.1802 0.0108752 -0.00138999 -7.10543e-14 -3.4 -2.55795e-13 6.52693 0.00859799 0.00080426 0.25 -2.2 0.4 -9.54166e-15 -3.18055e-15 -8.34896e-15 0 -8.3 1 38.7746 -4.53366 0.637338 0 -4.65 2.55795e-13 13.9602 -0.0152735 0.00620511 -1.13687e-13 -3.3 2.84217e-14 11.7528 -0.00995978 0.0066357 0.5 -2.15 -0.8 -9.54166e-15 -3.18055e-15 -8.34896e-15 1.13687e-13 -7.75 -0.2 43.8808 -16.4218 4.40343 0 -3.8 5.68434e-14 13.8928 0.0183719 -0.0104444 1.13687e-13 -3.4 0 11.6874 0.0119643 -0.0102583 0.75 -1.75 -1.85 -9.54166e-15 -3.18055e-15 -8.34896e-15 0 -7.15 -1 73.19 -3.93744 -4.52625 0 -3 2.27374e-13 -1.27222e-14 3.18055e-15 6.36056e-05 -2.27374e-13 -2.35 2.27374e-13 -1.59028e-14 4.77083e-15 6.30178e-05 8 2.84217e-14 2.27374e-13 -20.4763 -41.8617 -25.8004 13.6239 -41.342 -6.98189 -17.6016 75.0609 23.7896 -1.13687e-13 -41 -2 -5.58314 -1.47273 -17.0313 -1.13687e-13 -7.5 12.5 3.18055e-15 -27.014 -0 2.27374e-13 -5.68434e-14 4 6.8941 25.9719 62.8135 -8 0 0 4.07938 -49.0716 19.641 5.68434e-14 -45 -1 -1.21177 76.3616 1.60149 1.13687e-13 -41 -2 0.728747 -6.16485 -15.7755 -8.52651e-14 -7.5 12.5 -0 -13.9973 -0 2.84217e-14 -6.59195e-16 4 -9.52803 7.18772 62.1484 
-261.467 75.8167 1557.36 -14.2809 7.97386 170.037 -5.68434e-14 8 2.27374e-13 8.27737 15.8706 -12.8485 0 8 -2.27374e-13 0.129786 10.5863 1.85978 1.13687e-13 8 2.27374e-13 0.107924 5.30429 0.930969 -2.84217e-14 8 -2.27374e-13 0.107635 5.28094 0.926883 -5.68434e-14 17 0 1.9088 2.14466 -1.63495 -5.68434e-14 10.8 -2.27374e-13 4.55799 4.91843 -3.93316 5 17 2.27374e-13 -5.65115 0.265204 12.0788 6.45 0 -2.27374e-13 -1.20397 -1.26673 1.54235 6.45 0 0 47.951 6.97776 -7.15337 -1.13687e-13 -32.4 -2 -0.0483036 -71.708 -24.0106 -2.27374e-13 -25.65 2 -24.1624 -5.22312 -22.3094 -0.5 -1.5 2.65 -40.2708 -44.9257 114.066 0 -3.8 3.7 -0.37386 25.4198 -0.0210818 0 -3 2.7 -0.0549104 33.5507 0.045555 -2.27374e-13 -1.9 1.6 9.54166e-15 -1.49089e-15 1.59028e-15 0 -8.3 1.9 -58.5759 15.813 10.3837 -2.27374e-13 -4.5 5.68434e-14 -73.5026 -0.00446407 0.00365885 0 -3.4 1.13687e-13 -56.1701 -0.00190092 -0.00330193 -0.25 -2.2 0.4 9.54166e-15 -1.49089e-15 1.59028e-15 2.27374e-13 -8.3 1 -53.4704 11.8662 8.1014 0 -4.65 -1.13687e-13 -77.56 -0.0121306 -0.0012962 1.13687e-13 -3.3 0 -90.0002 -3.13583e-14 -2.98177e-15 -0.5 -2.15 -0.8 9.54166e-15 -1.49089e-15 1.59028e-15 0 -7.75 -0.2 -71.2125 3.92867 11.5765 0 -3.8 1.13687e-13 -4.08896 0.00405331 0.00084594 0 -3.4 0 -90.0002 -0.000671387 1.15295e-14 -0.75 -1.75 -1.85 9.54166e-15 -1.49089e-15 1.59028e-15 -2.27374e-13 -7.15 -1 -25.577 16.6797 5.07954 0 -3 5.68434e-14 -75.4904 -0.000898974 -0.00107274 0 -2.35 0 -90.0002 3.21534e-14 -9.14409e-15 -5 17 0 3.93591 -0.331656 -3.62397 -6.45 -3.41061e-13 -2.27374e-13 -2.04975 0.542191 -0.906658 -6.45 0 2.27374e-13 -29.4547 -24.3258 15.2798 -1.13687e-13 -32.4 -2 78.1173 -76.8778 40.5769 5.68434e-14 -25.65 2 -35.9379 -6.79716 -20.579 0.5 -1.5 2.65 -7.90575 -20.2635 0.67549 -1.13687e-13 -3.8 3.7 0.279325 -3.44756 -0.144704 -1.13687e-13 -3 2.7 0.0745839 68.4194 -0.0686115 0 -1.9 1.6 3.18055e-15 -2.38542e-15 7.95139e-16 0 -8.3 1.9 18.0749 -6.7561 0.934837 -5.68434e-14 -4.5 1.98952e-13 7.40199 0.00105155 -0.000737782 -5.68434e-14 -3.4 -1.98952e-13 6.71642 0.000749464 0.00171065 0.25 -2.2 0.4 3.18055e-15 -2.38542e-15 7.95139e-16 1.13687e-13 -8.3 1 39.2302 -4.56392 0.647123 -1.13687e-13 -4.65 2.27374e-13 12.8987 -0.0384602 0.0150026 -1.13687e-13 -3.3 0 10.9365 -0.0268481 0.0164551 0.5 -2.15 -0.8 3.18055e-15 -2.38542e-15 7.95139e-16 0 -7.75 -0.2 44.1359 -16.4673 4.44037 0 -3.8 2.84217e-14 14.3092 -0.00393368 0.00100336 0 -3.4 8.52651e-14 12.003 -0.00250728 0.00126887 0.75 -1.75 -1.85 3.18055e-15 -2.38542e-15 7.95139e-16 -1.13687e-13 -7.15 -1 73.4692 -3.92893 -4.59188 2.27374e-13 -3 1.7053e-13 -0 0 5.30625e-05 2.27374e-13 -2.35 2.27374e-13 3.18055e-15 3.18055e-15 5.25722e-05 8 0 2.27374e-13 -20.5734 -41.9442 -25.8956 13.6239 -41.342 -6.98189 -17.1646 74.9026 23.2826 -1.13687e-13 -41 -2 -5.78645 -1.19944 -16.7392 -1.13687e-13 -7.5 12.5 3.18055e-15 -26.9418 -0 0 -5.68434e-14 4 6.82642 25.8422 62.9112 -8 0 2.27374e-13 3.98641 -49.1527 19.5225 5.68434e-14 -45 -1 -1.39893 76.1937 1.85481 1.13687e-13 -41 -2 0.745177 -5.86056 -15.7993 -5.68434e-14 -7.5 12.5 -7.92836e-16 -13.9972 -3.27788e-15 0 -6.67001e-16 4 -9.5685 7.13333 62.1654 
